<mxfile host="Electron" modified="2024-05-29T20:56:32.879Z" agent="Mozilla/5.0 (Macintosh; Intel Mac OS X 10_15_7) AppleWebKit/537.36 (KHTML, like Gecko) draw.io/24.1.0 Chrome/120.0.6099.109 Electron/28.1.0 Safari/537.36" etag="l7KNObRBxDwSho2iPwyF" version="24.1.0" type="device">
  <diagram name="Страница — 1" id="2aqMH8SCtK3y8AyyAa5u">
    <mxGraphModel dx="984" dy="1804" grid="1" gridSize="10" guides="1" tooltips="1" connect="1" arrows="1" fold="1" page="1" pageScale="1" pageWidth="827" pageHeight="1169" math="0" shadow="0">
      <root>
        <mxCell id="0" />
        <mxCell id="1" parent="0" />
        <mxCell id="DaPa9X5vpvJgic_Vf4cz-6" value="Kubernetes Cluster" style="rounded=0;whiteSpace=wrap;html=1;fillColor=#dae8fc;strokeColor=#6c8ebf;align=left;verticalAlign=top;" vertex="1" parent="1">
          <mxGeometry x="500" y="-130" width="510" height="330" as="geometry" />
        </mxCell>
        <mxCell id="DaPa9X5vpvJgic_Vf4cz-1" value="PowerDNS" style="rounded=0;whiteSpace=wrap;html=1;fillColor=#ffe6cc;strokeColor=#d79b00;" vertex="1" parent="1">
          <mxGeometry x="320" y="80" width="120" height="60" as="geometry" />
        </mxCell>
        <mxCell id="DaPa9X5vpvJgic_Vf4cz-3" style="edgeStyle=orthogonalEdgeStyle;rounded=0;orthogonalLoop=1;jettySize=auto;html=1;" edge="1" parent="1" source="DaPa9X5vpvJgic_Vf4cz-2" target="DaPa9X5vpvJgic_Vf4cz-1">
          <mxGeometry relative="1" as="geometry" />
        </mxCell>
        <mxCell id="DaPa9X5vpvJgic_Vf4cz-32" value="delegate zone" style="edgeLabel;html=1;align=center;verticalAlign=middle;resizable=0;points=[];" vertex="1" connectable="0" parent="DaPa9X5vpvJgic_Vf4cz-3">
          <mxGeometry x="-0.25" y="-4" relative="1" as="geometry">
            <mxPoint x="15" y="-4" as="offset" />
          </mxGeometry>
        </mxCell>
        <mxCell id="DaPa9X5vpvJgic_Vf4cz-2" value="" style="ellipse;shape=cloud;whiteSpace=wrap;html=1;" vertex="1" parent="1">
          <mxGeometry x="80" y="70" width="120" height="80" as="geometry" />
        </mxCell>
        <mxCell id="DaPa9X5vpvJgic_Vf4cz-27" style="rounded=0;orthogonalLoop=1;jettySize=auto;html=1;" edge="1" parent="1" source="DaPa9X5vpvJgic_Vf4cz-7" target="DaPa9X5vpvJgic_Vf4cz-16">
          <mxGeometry relative="1" as="geometry" />
        </mxCell>
        <mxCell id="DaPa9X5vpvJgic_Vf4cz-28" style="rounded=0;orthogonalLoop=1;jettySize=auto;html=1;" edge="1" parent="1" source="DaPa9X5vpvJgic_Vf4cz-7" target="DaPa9X5vpvJgic_Vf4cz-17">
          <mxGeometry relative="1" as="geometry" />
        </mxCell>
        <mxCell id="DaPa9X5vpvJgic_Vf4cz-7" value="gslb-operator" style="rounded=0;whiteSpace=wrap;html=1;fillColor=#e1d5e7;strokeColor=#9673a6;" vertex="1" parent="1">
          <mxGeometry x="690" y="-100" width="120" height="70" as="geometry" />
        </mxCell>
        <mxCell id="DaPa9X5vpvJgic_Vf4cz-8" value="" style="rounded=0;whiteSpace=wrap;html=1;" vertex="1" parent="1">
          <mxGeometry x="520" y="70" width="120" height="60" as="geometry" />
        </mxCell>
        <mxCell id="DaPa9X5vpvJgic_Vf4cz-12" style="edgeStyle=orthogonalEdgeStyle;rounded=0;orthogonalLoop=1;jettySize=auto;html=1;" edge="1" parent="1" source="DaPa9X5vpvJgic_Vf4cz-9" target="DaPa9X5vpvJgic_Vf4cz-11">
          <mxGeometry relative="1" as="geometry" />
        </mxCell>
        <mxCell id="DaPa9X5vpvJgic_Vf4cz-9" value="DriverPdns&lt;div&gt;http backend&lt;/div&gt;" style="rounded=0;whiteSpace=wrap;html=1;" vertex="1" parent="1">
          <mxGeometry x="530" y="80" width="120" height="60" as="geometry" />
        </mxCell>
        <mxCell id="DaPa9X5vpvJgic_Vf4cz-10" style="edgeStyle=orthogonalEdgeStyle;rounded=0;orthogonalLoop=1;jettySize=auto;html=1;" edge="1" parent="1" source="DaPa9X5vpvJgic_Vf4cz-1" target="DaPa9X5vpvJgic_Vf4cz-9">
          <mxGeometry relative="1" as="geometry" />
        </mxCell>
        <mxCell id="DaPa9X5vpvJgic_Vf4cz-31" value="http" style="edgeLabel;html=1;align=center;verticalAlign=middle;resizable=0;points=[];" vertex="1" connectable="0" parent="DaPa9X5vpvJgic_Vf4cz-10">
          <mxGeometry x="-0.1556" y="-2" relative="1" as="geometry">
            <mxPoint as="offset" />
          </mxGeometry>
        </mxCell>
        <mxCell id="DaPa9X5vpvJgic_Vf4cz-11" value="Redis&lt;div&gt;Current State&lt;/div&gt;" style="rounded=0;whiteSpace=wrap;html=1;fillColor=#f8cecc;strokeColor=#b85450;" vertex="1" parent="1">
          <mxGeometry x="700" y="80" width="120" height="60" as="geometry" />
        </mxCell>
        <mxCell id="DaPa9X5vpvJgic_Vf4cz-13" value="pdns-driver" style="rounded=0;whiteSpace=wrap;html=1;" vertex="1" parent="1">
          <mxGeometry x="860" y="70" width="120" height="60" as="geometry" />
        </mxCell>
        <mxCell id="DaPa9X5vpvJgic_Vf4cz-15" style="edgeStyle=orthogonalEdgeStyle;rounded=0;orthogonalLoop=1;jettySize=auto;html=1;" edge="1" parent="1" source="DaPa9X5vpvJgic_Vf4cz-14" target="DaPa9X5vpvJgic_Vf4cz-11">
          <mxGeometry relative="1" as="geometry" />
        </mxCell>
        <mxCell id="DaPa9X5vpvJgic_Vf4cz-21" style="rounded=0;orthogonalLoop=1;jettySize=auto;html=1;entryX=0;entryY=0.5;entryDx=0;entryDy=0;" edge="1" parent="1" source="DaPa9X5vpvJgic_Vf4cz-14" target="DaPa9X5vpvJgic_Vf4cz-18">
          <mxGeometry relative="1" as="geometry" />
        </mxCell>
        <mxCell id="DaPa9X5vpvJgic_Vf4cz-24" value="check" style="edgeLabel;html=1;align=center;verticalAlign=middle;resizable=0;points=[];" vertex="1" connectable="0" parent="DaPa9X5vpvJgic_Vf4cz-21">
          <mxGeometry x="-0.1637" y="2" relative="1" as="geometry">
            <mxPoint as="offset" />
          </mxGeometry>
        </mxCell>
        <mxCell id="DaPa9X5vpvJgic_Vf4cz-22" style="edgeStyle=orthogonalEdgeStyle;rounded=0;orthogonalLoop=1;jettySize=auto;html=1;" edge="1" parent="1" source="DaPa9X5vpvJgic_Vf4cz-14" target="DaPa9X5vpvJgic_Vf4cz-19">
          <mxGeometry relative="1" as="geometry" />
        </mxCell>
        <mxCell id="DaPa9X5vpvJgic_Vf4cz-25" value="check" style="edgeLabel;html=1;align=center;verticalAlign=middle;resizable=0;points=[];" vertex="1" connectable="0" parent="DaPa9X5vpvJgic_Vf4cz-22">
          <mxGeometry x="-0.0545" y="-4" relative="1" as="geometry">
            <mxPoint as="offset" />
          </mxGeometry>
        </mxCell>
        <mxCell id="DaPa9X5vpvJgic_Vf4cz-23" style="rounded=0;orthogonalLoop=1;jettySize=auto;html=1;" edge="1" parent="1" source="DaPa9X5vpvJgic_Vf4cz-14" target="DaPa9X5vpvJgic_Vf4cz-20">
          <mxGeometry relative="1" as="geometry" />
        </mxCell>
        <mxCell id="DaPa9X5vpvJgic_Vf4cz-26" value="check" style="edgeLabel;html=1;align=center;verticalAlign=middle;resizable=0;points=[];" vertex="1" connectable="0" parent="DaPa9X5vpvJgic_Vf4cz-23">
          <mxGeometry x="-0.0903" relative="1" as="geometry">
            <mxPoint as="offset" />
          </mxGeometry>
        </mxCell>
        <mxCell id="DaPa9X5vpvJgic_Vf4cz-14" value="Pool-checker" style="rounded=0;whiteSpace=wrap;html=1;" vertex="1" parent="1">
          <mxGeometry x="870" y="80" width="120" height="60" as="geometry" />
        </mxCell>
        <mxCell id="DaPa9X5vpvJgic_Vf4cz-29" style="edgeStyle=orthogonalEdgeStyle;rounded=0;orthogonalLoop=1;jettySize=auto;html=1;entryX=0.5;entryY=0;entryDx=0;entryDy=0;" edge="1" parent="1" source="DaPa9X5vpvJgic_Vf4cz-16" target="DaPa9X5vpvJgic_Vf4cz-8">
          <mxGeometry relative="1" as="geometry" />
        </mxCell>
        <mxCell id="DaPa9X5vpvJgic_Vf4cz-16" value="CRD: GSLBDriver" style="rounded=0;whiteSpace=wrap;html=1;fillColor=#e1d5e7;strokeColor=#9673a6;" vertex="1" parent="1">
          <mxGeometry x="520" y="-20" width="120" height="40" as="geometry" />
        </mxCell>
        <mxCell id="DaPa9X5vpvJgic_Vf4cz-30" style="edgeStyle=orthogonalEdgeStyle;rounded=0;orthogonalLoop=1;jettySize=auto;html=1;entryX=0.5;entryY=0;entryDx=0;entryDy=0;" edge="1" parent="1" source="DaPa9X5vpvJgic_Vf4cz-17" target="DaPa9X5vpvJgic_Vf4cz-13">
          <mxGeometry relative="1" as="geometry" />
        </mxCell>
        <mxCell id="DaPa9X5vpvJgic_Vf4cz-17" value="CRD: GSLBPool" style="rounded=0;whiteSpace=wrap;html=1;fillColor=#e1d5e7;strokeColor=#9673a6;" vertex="1" parent="1">
          <mxGeometry x="860" y="-20" width="120" height="40" as="geometry" />
        </mxCell>
        <mxCell id="DaPa9X5vpvJgic_Vf4cz-18" value="IP" style="rounded=0;whiteSpace=wrap;html=1;" vertex="1" parent="1">
          <mxGeometry x="1100" width="80" height="60" as="geometry" />
        </mxCell>
        <mxCell id="DaPa9X5vpvJgic_Vf4cz-19" value="IP" style="rounded=0;whiteSpace=wrap;html=1;" vertex="1" parent="1">
          <mxGeometry x="1100" y="80" width="80" height="60" as="geometry" />
        </mxCell>
        <mxCell id="DaPa9X5vpvJgic_Vf4cz-20" value="IP" style="rounded=0;whiteSpace=wrap;html=1;" vertex="1" parent="1">
          <mxGeometry x="1100" y="160" width="80" height="60" as="geometry" />
        </mxCell>
      </root>
    </mxGraphModel>
  </diagram>
</mxfile>
